<?xml version="1.0" encoding="utf-8"?>
<!-- Generator: Adobe Illustrator 23.0.1, SVG Export Plug-In . SVG Version: 6.00 Build 0)  -->
<svg version="1.1" id="Layer_1" xmlns="http://www.w3.org/2000/svg" xmlns:xlink="http://www.w3.org/1999/xlink" x="0px" y="0px"
	 viewBox="0 0 555 555" style="enable-background:new 0 0 555 555;" xml:space="preserve">
<style type="text/css">
	.st0{display:none;fill-rule:evenodd;clip-rule:evenodd;fill:#79673D;}
	.st1{fill:#505F6B;}
	.st2{fill:#FFFFFF;}
	.st3{fill:#DCDCDC;}
	.st4{fill:#B9B9B9;}
	.st5{fill-rule:evenodd;clip-rule:evenodd;fill:#CB8A52;}
	.st6{fill:#F4F4F4;}
	.st7{fill:#D3D3D3;}
	.st8{fill:#BCBCBC;}
	.st9{fill:none;}
	.st10{fill:#FF5556;}
	.st11{fill:#E0B997;}
	.st12{fill:#8452CB;}
	.st13{fill-rule:evenodd;clip-rule:evenodd;fill:#3E3E59;}
	.st14{fill:#F0E5E5;}
	.st15{fill:#6A6A82;}
	.st16{fill:#83A48B;}
	.st17{fill:#55462F;}
	.st18{fill:#515165;}
	.st19{fill:#D6CCC4;}
</style>
<path class="st0" d="M90.7,497l9.9,32.4l15-21.9l-0.7-37.7L90.7,497L90.7,497z"/>
<g>
	<path class="st1" d="M60.2,367.9c30.6-4.7,60.7-8.3,91.1-12c4.9-0.7,9.9-1.3,14.9-2c65.4-8.8,136.7-18.5,136.7-18.5L529,439.6
		l-240,57.9c0,0-6.4-3.6-17-9.6c-5.3-3-11.7-6.6-18.8-10.7c-11.8-6.8-22.8-14.4-33.9-22.1c-3.7-2.6-7.4-5.2-11.1-7.8
		C169.1,416.5,123.5,396,78,376.3C66.8,371.1,60.2,367.9,60.2,367.9z"/>
	<path class="st2" d="M70.7,369.7c32.4-5,65.7-8.1,98.3-12.9c5.8-0.8,11.6-1.6,17.4-2.4c58.2-8,116.3-16,116.3-16L469,415.9
		c0,0-112.9,24.3-180.7,38.9c-9.7,2.1-18.4,4-25.8,5.6c-8.2,1.7-17.3,6.4-22.6,3.3c-5.6-3.4-11.2-6.8-16.7-10.1
		c-5.5-3.3-11-6.6-16.5-9.9C169.1,419,131.6,395.5,89,378.4C77.7,373.1,70.7,369.7,70.7,369.7z"/>
	<g>
		<path class="st2" d="M447,450.4l-1.5-0.7c-0.6-0.3-0.5-0.7,0.1-0.8l6.9-1.6l-23.6-11.3c-0.6-0.3-0.5-0.6,0.1-0.8l2.1-0.5
			c0.7-0.1,1.7,0,2.3,0.3l23.6,11.3l6.9-1.6c0.7-0.2,1.7-0.1,2.3,0.2l1.5,0.7c0.6,0.3,0.5,0.6-0.1,0.8l-18.3,4.2
			C448.6,450.8,447.6,450.7,447,450.4z"/>
		<path class="st2" d="M399.2,451.9c-8.3-4.2-8-8.9,1.5-10.9c9.5-2.1,22.7-0.5,31.1,3.6c8.3,4,7.9,8.7-1.6,10.9
			C420.7,457.6,407.6,456,399.2,451.9z M403.9,450.8c5.5,2.7,15.1,4.4,22.6,2.7c7.5-1.7,6.2-5.3,0.7-8c-5.5-2.7-15.1-4.4-22.6-2.7
			C397.1,444.5,398.4,448.1,403.9,450.8z"/>
		<path class="st2" d="M368.2,459c-8.1-4.1-8.4-8.6,2.5-11l7.8-1.7c0.7-0.2,1.7,0,2.3,0.3l26.2,13.1c0.6,0.3,0.5,0.7-0.1,0.8
			l-7.8,1.8C388.2,464.9,376.2,463.2,368.2,459z M372.8,458c6.4,3.3,15,4.3,22.6,2.5l4.5-1.1l-21-10.6l-4.5,1
			C366.8,451.6,366.4,454.7,372.8,458z"/>
		<path class="st2" d="M330.1,457.9l8.2,2.6l13.8-3.1l-3.6-3.6c-0.3-0.3-0.2-0.7,0.5-0.8l2.7-0.6c0.6-0.1,1.5,0,1.7,0.3l15.4,16.3
			c0.3,0.3,0.1,0.7-0.6,0.8l-2.9,0.7c-0.7,0.2-1.6,0.1-2.4-0.1L325.1,459c-0.7-0.2-0.7-0.6-0.2-0.7l2.6-0.6
			C328.3,457.5,329.3,457.6,330.1,457.9z M343.5,462l19,5.8l-8.2-8.3L343.5,462z"/>
		<path class="st2" d="M326.6,478.9l-5.5-11.6l-9.6-5.1c-0.6-0.3-0.6-0.7,0.1-0.9l2.1-0.5c0.7-0.2,1.7,0,2.3,0.3l9.6,5.1l28,6.1
			c0.8,0.2,1.1,0.6,0.4,0.7l-2.6,0.6c-0.7,0.2-1.7,0.2-2.6-0.1l-21.8-5l4.8,9.1c0.2,0.4-0.1,0.7-0.8,0.9l-2.6,0.6
			C327.7,479.4,326.8,479.2,326.6,478.9z"/>
	</g>
</g>
<path class="st3" d="M489.2,246.2c-4.2,28-14.5,54.9-32.3,78.8c-16.6,22.2-38.9,40.5-64.6,50c-33.6,12.4-69.8,8-104.6,5.3
	c-31.9-2.4-65.2-3-95.2,10.2c-6.6,2.9-12.9,6.5-18.7,10.8c-8.8,6.5-34,7.1-44.9,8.1c-14.4,1.4-29.6,1.4-43.7-2.5
	c-24.5-6.7-42.7-27-49.6-50.1c-7.7-25.7-3-53.4,5.5-79c8.7-26.3,21.8-51.8,42.2-71.3c12-11.5,26.5-19.5,42.2-25.4
	c13.5-5.1,33.3-4.6,42.7-16.6c11.7-14.9,14.6-41.7,21.6-59.1c8.2-20.5,19.5-40.6,37-54.7c25.6-20.6,61-25.8,94.4-26.6
	c24.5-0.6,49.5,0.9,72.5,9c41.9,14.8,63.1,53.1,78.6,90.8C488.2,162.4,495.3,205,489.2,246.2z"/>
<path class="st4" d="M305.5,48v52.3c0,5.6,9.1,5.6,9.1,0V48C314.6,42.4,305.5,42.4,305.5,48z"/>
<path class="st4" d="M281.9,68.5v53.3c0,5.6,9.1,5.6,9.1,0V68.5C291.1,62.9,281.9,62.9,281.9,68.5z"/>
<path class="st4" d="M255.1,100.3v36.9c0,5.6,9.1,5.6,9.1,0v-36.9C264.2,94.7,255.1,94.7,255.1,100.3z"/>
<path class="st4" d="M327,60.3v52.3c0,5.6,9.1,5.6,9.1,0V60.3C336.1,54.7,327,54.7,327,60.3z"/>
<path class="st4" d="M352.7,79.8v57.4c0,5.6,9.1,5.6,9.1,0V79.8C361.8,74.2,352.7,74.2,352.7,79.8z"/>
<g id="book">
	<path class="st5" d="M442.9,385.5l-50.5,1.5l-37.7-4.4l4.3-3.3l84.1,5.9C443.4,385.1,442.9,385.5,442.9,385.5z"/>
	<path class="st5" d="M443.6,399.5c0,0.6-0.5,0.5-0.5,0.5l-50.7,1.3l-33.8-6.9l-8.2-8.4l4.3-3.4l37.7,4.4
		c-3.5,6.9-1.2,12.2-0.3,13.7c0,0,44.6-0.9,50.8-1.2C443.3,399.5,443.6,399.5,443.6,399.5z"/>
	<path class="st6" d="M442.9,385.5v14c-6.2,0.3-50.8,1.2-50.8,1.2c-0.9-1.6-3.2-6.9,0.3-13.7L442.9,385.5z"/>
</g>
<g>
	<path class="st7" d="M291.9,352.2c-5.5,0-10.8,1.4-10.8,1.4v15.7c0,0,1.4-0.9,16.6-3c-6.5,1-16.6,4.1-16.6,4.1s22.5-12,22.5,5.9
		c57.3,0,83,15.3,83,15.3l0-14.1l0.1-1.3l1.8-16.5l0.1-2.5l0.3-7.9c0,0-26.6-3.3-54.2-3.2c13.6-0.6,43.8,1.3,56.2,2.7
		c10.9-1.9,40.6-4.5,40.6-4.5c-2.6-0.2-61-6.6-87.6-7.8c-25.9-0.2-62.7,1.9-62.7,1.9v13.4C281.1,351.9,287.1,351.4,291.9,352.2z
		 M293.6,361.2c0,0,32.4-3.8,51.4-2c0,0,0,0,0,0c0,0,0,0,0,0c-0.9,0.2-29.7,5.6-41.5,12.7c-0.1,0.1-0.2,0.2-0.3,0.3
		C294.2,362.5,293.6,361.2,293.6,361.2z"/>
	<path class="st6" d="M386.7,377.5l0,14.1l44.7-10.2l0-7c0,0-2-0.6-5.4-0.3c1.2-0.6,5.5-0.6,5.5-0.6s0-12,0-12c0,0-2.5-0.6-8.9,0.2
		c2.3-0.8,8.9-1.3,8.9-1.3v-16.1c0,0-29.6,2.6-40.6,4.5c-12.4-1.4-42.6-3.3-56.2-2.7c27.7-0.2,54.2,3.2,54.2,3.2l-2.1,27l19.1-1.3
		L386.7,377.5z"/>
	<polygon class="st7" points="387.8,385.2 407,382.7 387.9,384 	"/>
	<path class="st8" d="M359.8,376.1c10.7-0.1,26.9,1.4,26.9,1.4l19.2-2.5l-19.1,1.3C386.8,376.3,372.3,375.7,359.8,376.1z"/>
	<path class="st8" d="M355.1,376.3c1.5-0.1,3.1-0.1,4.6-0.2C358,376.1,356.5,376.2,355.1,376.3z"/>
	<line class="st9" x1="389.6" y1="366.9" x2="389.1" y2="367.5"/>
	<line class="st9" x1="387.9" y1="368.9" x2="387.9" y2="368.9"/>
	<path id="Long_side" class="st6" d="M421.7,298.4c5.5,0,10.8,1.9,10.8,1.9v22.1c0,0-1.4-1.2-16.6-4.3c6.5,1.3,16.6,5.7,16.6,5.7
		s-1.8-4.7-1.8,20.7c-42.9-6.6-103.2,7.1-103.2,7.1l-1.6-40.6h6.4c0,0,0.4,3.2,3,12.4c4.7-0.2,10-0.2,13.3-0.1c2,0,3.2,0.1,3.2,0.1
		v-4.1c1.8-0.1,3.6-0.2,5.5-0.3c-2.4-1.1-5.6-7.1-7.6-10.1c-2.4-0.4-10.5-0.3-16.8-0.2c-4.4,0.1-7.9,0.2-7.9,0.2l-0.1-3.6l-0.2-9.9
		c0,0,26.6-3.9,54.1-5.7c-13.6-0.8-43.8,1.8-56.2,3.8c-10.9-2.7-40.6-6.3-40.6-6.3c2.6-0.2,61-9.2,87.6-11
		c25.9-0.2,62.7,8.8,62.7,8.8v12.9C432.5,297.9,426.5,297.2,421.7,298.4z"/>
	<path id="Short_side" class="st7" d="M351.8,319.4L351.8,319.4l0,4.1c0,0-1.3,0-3.2-0.1c-3.3-0.1-8.6-0.1-13.3,0.1
		c-2.6-9.2-3-12.4-3-12.4h-6.4l1.7,38.2l-45.4-9.7l0-9.9c0,0,2-0.8,5.4-0.4c-1.2-0.9-5.5-0.9-5.5-0.9s0-17,0-17c0,0,2.5-0.8,8.9,0.3
		c-2.3-1.2-8.9-1.8-8.9-1.8v-22.6c0,0,29.6,3.6,40.6,6.3c12.4-1.9,42.6-4.6,56.2-3.8c-27.5,1.8-54.1,5.7-54.1,5.7l0.2,9.9l0.1,3.6
		c0,0,3.5-0.1,7.9-0.2c0,6,4.1,11.5,4.1,11.5S343.6,319.9,351.8,319.4z"/>
	<path id="Note" class="st10" d="M357.3,319.1c-1.9,0.1-3.8,0.2-5.5,0.3h0c-8.3,0.5-14.7,0.9-14.7,0.9s-4.1-5.5-4.1-11.5
		c6.3-0.1,14.4-0.2,16.8,0.2C351.7,312,354.9,318,357.3,319.1z"/>
	<path id="Shadow" class="st8" d="M307.7,330.5l19.2,3.5c0,0,21.9-2.9,31.6-1.7c-13.3-1-31.7-0.1-31.7-0.1L307.7,330.5z"/>
	<path class="st11" d="M420,311.1c0,0-0.7,1.8-9.6,15.4c-0.1-0.1-0.2-0.2-0.3-0.4c-9-11.6-41-17.9-41.5-18c0,0,0,0,0,0
		C387.6,305.8,420,311.1,420,311.1z"/>
	<path class="st7" d="M410.2,326.2c-11.9-10.2-41-17.8-41.5-18C369.1,308.3,401.1,314.6,410.2,326.2z"/>
</g>
<g>
	<path class="st6" d="M328.5,319.8l0,14.1l-47.4-10.2l0-7c0,0,2.1-0.6,5.8-0.3c-1.3-0.6-5.8-0.6-5.8-0.6s0-12,0-12
		c0,0,2.7-0.6,9.5,0.2c-2.5-0.8-9.5-1.3-9.5-1.3v-16.1c0,0,31.5,2.6,43,4.5c13.1-1.4,45.2-3.3,59.6-2.7c-29.3-0.2-57.5,3.2-57.5,3.2
		l2.2,27l-20.3-1.3L328.5,319.8z"/>
	<polygon class="st7" points="327.4,327.6 307,325 327.3,326.3 	"/>
	<path class="st8" d="M362,318.6c-1.6-0.1-3.2-0.1-4.9-0.2C358.9,318.4,360.6,318.5,362,318.6z"/>
	<line class="st9" x1="326" y1="309.8" x2="325.5" y2="309.2"/>
	<line class="st9" x1="327.3" y1="311.2" x2="327.3" y2="311.2"/>
	<path id="Long_side_1_" class="st6" d="M291.4,240.7c-5.9,0-11.5,1.9-11.5,1.9v22.1c0,0,1.5-1.2,17.6-4.3
		c-6.9,1.3-17.6,5.7-17.6,5.7s1.9-4.7,1.9,20.7c45.5-6.6,109.5,7.1,109.5,7.1l1.7-40.6h-6.7c0,0-0.4,3.2-3.2,12.4
		c-5-0.2-10.7-0.2-14.1-0.1c-2.1,0-3.4,0.1-3.4,0.1v-4.1c-1.9-0.1-3.9-0.2-5.9-0.3c2.5-1.1,6-7.1,8-10.1c2.5-0.4,11.2-0.3,17.8-0.2
		c4.7,0.1,8.4,0.2,8.4,0.2l0.1-3.6l0.2-9.9c0,0-28.3-3.9-57.4-5.7c14.4-0.8,46.5,1.8,59.6,3.8c11.6-2.7,43-6.3,43-6.3
		c-2.8-0.2-64.7-9.2-92.9-11c-27.5-0.2-66.5,8.8-66.5,8.8v12.9C280,240.2,286.3,239.5,291.4,240.7z"/>
	<path id="Short_side_1_" class="st7" d="M365.5,261.7L365.5,261.7l0,4.1c0,0,1.3,0,3.4-0.1c3.5-0.1,9.1-0.1,14.1,0.1
		c2.8-9.2,3.2-12.4,3.2-12.4h6.7l-1.8,38.2l48.1-9.7l0-9.9c0,0-2.1-0.8-5.8-0.4c1.3-0.9,5.8-0.9,5.8-0.9s0-17,0-17
		c0,0-2.7-0.8-9.5,0.3c2.5-1.2,9.5-1.8,9.5-1.8v-22.6c0,0-31.5,3.6-43,6.3c-13.1-1.9-45.2-4.6-59.6-3.8c29.2,1.8,57.4,5.7,57.4,5.7
		l-0.2,9.9l-0.1,3.6c0,0-3.7-0.1-8.4-0.2c0,6-4.3,11.5-4.3,11.5S374.3,262.2,365.5,261.7z"/>
	<path id="Note_1_" class="st12" d="M359.7,261.4c2,0.1,4,0.2,5.9,0.3h0c8.8,0.5,15.6,0.9,15.6,0.9s4.3-5.5,4.3-11.5
		c-6.7-0.1-15.3-0.2-17.8,0.2C365.6,254.4,362.2,260.3,359.7,261.4z"/>
	<path id="Shadow_1_" class="st8" d="M412.3,272.8l-20.4,3.5c0,0-23.2-2.9-33.5-1.7c14.1-1,33.6-0.1,33.6-0.1L412.3,272.8z"/>
	<path class="st2" d="M293.2,253.4c0,0,0.7,1.8,10.2,15.4c0.1-0.1,0.2-0.2,0.3-0.4c9.6-11.6,43.5-17.9,44-18c0,0,0,0,0,0
		C327.6,248.1,293.2,253.4,293.2,253.4z"/>
	<path class="st7" d="M303.6,268.5c12.6-10.2,43.5-17.8,44-18C347.2,250.6,313.2,256.9,303.6,268.5z"/>
</g>
<g id="book_2_">
	<path class="st13" d="M427.6,222.1l-50.4,1.1l-37.6-3.1l4.3-2.4l83.9,4.2C428.1,221.9,427.6,222.1,427.6,222.1z"/>
	<path class="st13" d="M428.3,232.1c0,0.4-0.5,0.4-0.5,0.4l-50.6,0.9l-33.8-4.9l-8.2-6l4.3-2.4l37.6,3.1c-3.5,4.9-1.2,8.7-0.3,9.8
		c0,0,44.5-0.7,50.7-0.9C428,232.2,428.3,232.1,428.3,232.1z"/>
	<path class="st6" d="M427.6,222.1v10c-6.2,0.2-50.7,0.9-50.7,0.9c-0.9-1.1-3.2-4.9,0.3-9.8L427.6,222.1z"/>
</g>
<g>
	<path class="st14" d="M359.3,429.3c-1.4,2.2-2.9,4.2-6.1,4.3c-3.1,0.1-6,1.8-9.1,1c-2.6-0.6-5-1.7-7.6-2.2
		c-2.4-0.5-3.7-1.2-3.8-3.9c0-2.2-0.9-5.4-0.6-7.6c1.6,0.8,3.4,0.9,5.3,0.5c0,0,0,0,0,0c0.1,0,0.1,0,0.2,0c4.2-0.9,8.9-3.9,12.5-6.2
		c0,0,0,0,0.1,0c0.1-0.1,0.3-0.2,0.4-0.3c1.5-1,2.8-2.1,3.9-3.4c0,0,0,0,0,0c0.9,5.2,2.1,11.1,4.8,15.7
		C359.8,428,359.8,428.6,359.3,429.3z"/>
	<path class="st15" d="M325.9,389.2c-0.6,0-1.2-0.1-1.8-0.1c-0.4,11.2-3.3,21.9-8.6,31.9c-6.3,11.7-14.7,22-23.3,32.2
		c-9.4,11.1-18.7,22.4-27.8,33.7c-6.1,7.7-11.8,15.7-18.1,23.3c-1.4,1.7-2.3,3.8-3.5,6.1c0-3.5-0.1-6.6,0-9.8
		c0.3-11.9-0.2-23.7-0.5-35.5c-0.1-3.5,0.5-7.1,1.5-10.6c1.9-7.1,2.9-14.3,4.3-21.5c3.1-16.2,8.2-31.8,13.7-47.3
		c0.3-1,2-4.9,1.5-4.3c-2.1,2.3-4.4,2.6-6.4,4.1c-24.9,17.6-53,28.2-83,34.7c-11.4,2.4-22.7,5.6-34.2,7.6
		c-9.2,1.6-18.5,3.1-27.7,4.7c-6,1.1-11.9,2.9-17.9,4.3c-6.2,1.4-12.1,3.7-18.1,5.7c-1.2,0.4-2.2,0.9-3,2c-1,1.4-2.9,2.1-4.7,2.5
		c-8.3,1.8-13.7-0.6-15.3-10.2c-1.7-10.1-2.9-20.2-5.1-30.2c-1.4-6.2-0.6-12.6-0.8-18.9c0-2,0.1-4,0.1-6c0.1-2.3,2-4.1,4.3-4.1
		c1.1,0,1.3,0.8,1.5,1.6c0.9,3.8,1.8,7.6,2.8,11.4c1.8,6.6,4.6,12.9,7.7,19c1.8,3.4,3.2,7,4.5,10.6c0.2,0.6,0.4,1.4,1.2,1.5
		c0.9,0.2,0.9-0.6,1.1-1.2c0.2-0.3,0.6-0.6,1-0.8c32.1-19.4,65.6-36,101.4-48.3c11.4-3.9,44.9-13.2,48.3-16.2c1-0.4,2-0.9,3-1.3
		c3.3-1.3,5.9-1.9,9,0.2c0.8,0.6,1.7,1.1,2.6,1.6c0,0,0,0,0,0c0.7,0.4,1.5,0.8,2.4,1.2c2,0.9,4.1,1.7,6.3,2.4c0,0,0,0,0.1,0
		c2.4,0.7,4.8,1.4,7.3,2c2.6,0.6,5.1,1.3,7.6,1.9c0.9,0.2,1.7,0.4,2.5,0.6c0.1,0,0.3,0.1,0.4,0.1c12.5,3.1,25,6.3,37.3,10
		c0.9,0.3,1.9,0.5,2.8,0.8c5.6,1.6,10.8,3.8,15.8,6.6c0,0,0,0,0,0C318.7,387.3,323.5,388.8,325.9,389.2z"/>
	<path class="st16" d="M369.1,304.6c-0.1,1.2-0.2,2.4-0.3,3.5c0,0,0,0,0,0.1v0c-0.7,9.8-1.6,19.8-2.6,29.8c-0.3,2.4-0.5,4.9-0.8,7.3
		c-0.1,0.5-0.1,1-0.2,1.4c0,0.1,0,0.2,0,0.3c-0.8,7.1-1.8,14.2-2.9,21.2c-0.3,2.2-0.7,4.8-0.9,7.8c0,0,0,0,0,0
		c-0.1,1.1-0.2,2.2-0.3,3.3c-0.1,1-0.2,2-0.2,3.1c0,0.3,0,0.6-0.1,0.9c-0.3,3.8-0.5,7.6-0.7,11.3c-0.6,9.6-1.1,17.9-1.7,19
		c-0.5,0.8-1.7,1.4-3.1,1.9h0c-1.5,0.5-3.1,0.9-4,1.2c-3.7,1.2-7.1,2.8-10.8,3.9c-0.5,0.2-1,0.3-1.5,0.4c0,0,0,0,0,0c0,0,0,0,0,0h0
		c-1.7,0.4-3.5,0.5-5.3,0.3c-0.1,0-0.2,0-0.4-0.1c0,0,0,0,0,0h0c-0.3-0.1-0.7-0.1-1-0.2h0c-1.4-0.2-2.7-0.7-2.8-2.1
		c-0.3-9-0.2-21.3-2.1-29.9c0.1,0.2-0.4,0.3-1.2,0.2v0c0,0-0.1,0-0.1,0h0c-2.4-0.4-7.3-2-7.7-2.1c0,0,0,0,0,0
		c-5-2.8-10.3-4.9-15.8-6.6c-0.9-0.3-1.9-0.5-2.8-0.8c-12.3-3.7-24.8-6.9-37.3-10c-0.2,0-0.3-0.1-0.4-0.1c-0.9-0.2-1.7-0.4-2.5-0.6
		c-2.5-0.6-5.1-1.3-7.6-1.9c-2.4-0.6-4.9-1.2-7.3-2c0,0,0,0-0.1,0c-2.1-0.7-4.2-1.5-6.3-2.4c-0.9-0.4-1.7-0.8-2.4-1.2c0,0,0,0,0,0
		c-0.9-0.5-1.8-1-2.6-1.6c-3.1-2.1-5.7-1.5-9-0.2c-1,0.4-2,0.8-3,1.3c0,0,0.1-0.1,0.1-0.1c0,0,0,0,0,0c-0.1,0-0.2,0.1-0.3,0.1
		c-0.1,0-0.2,0.1-0.2,0.1c-0.6,0.2-1.3,0.5-2.1,0.8c-0.1,0-0.2,0.1-0.2,0.1c-3.9,1.4-9.4,3.1-10.6,3.3c-0.1,0-0.2,0-0.2,0
		c-2.4-0.4-4.8-0.7-7.2-1.1c-1.2-0.2-2.2-0.5-3-1.2c-0.2-0.3-0.4-0.7-0.6-1.1c0-0.1-0.1-0.2-0.1-0.3c0,0,0,0,0,0
		c-1.9-6.1,16-18.8,20-23.2c9.4-10.5,17.6-22.1,25.7-33.6c10.5-14.8,19.1-39.4,34.5-51.6h0c0.4-0.1,0.7-0.4,0.9-0.7c0,0,0,0,0,0
		c1.4-1.1,3-2,4.5-2.9c0.2-0.1,0.4-0.2,0.6-0.3c0.4-0.2,0.9-0.4,1.3-0.6c0.2-0.1,0.4-0.2,0.7-0.3c0.5-0.2,0.9-0.4,1.4-0.6
		c0.2-0.1,0.4-0.1,0.6-0.2c0.1,0,0.3-0.1,0.4-0.1c0.3-0.1,0.6-0.2,0.8-0.3c0.2-0.1,0.4-0.1,0.6-0.2c0.2-0.1,0.5-0.3,0.7-0.5
		c-0.2,0.2-0.3,0.4-0.5,0.6c-0.1,0.1-0.1,0.3-0.2,0.4c0,0.4,0.1,0.7,0.3,1c0,0.1,0.1,0.2,0.2,0.3c0.1,0.1,0.1,0.2,0.2,0.3
		c0.1,0.1,0.1,0.2,0.2,0.3c0.1,0.1,0.2,0.2,0.2,0.3c0.1,0.1,0.2,0.2,0.3,0.3c0,0,0,0,0,0c0.1,0.1,0.2,0.2,0.3,0.3
		c0.5,0.5,1.2,1,1.9,1.5c0.1,0.1,0.3,0.2,0.5,0.3c0.2,0.1,0.3,0.2,0.5,0.3c0.2,0.1,0.3,0.2,0.5,0.2c0.2,0.1,0.3,0.2,0.5,0.2
		c0.3,0.2,0.7,0.3,1.1,0.5c0.4,0.1,0.7,0.3,1.1,0.4c0,0,0,0,0,0c0.4,0.1,0.8,0.3,1.2,0.4c0.5,0.2,1,0.3,1.6,0.5
		c0.2,0,0.3,0.1,0.5,0.1c0.2,0,0.3,0.1,0.5,0.1c0.4,0.1,0.8,0.2,1.2,0.3c1.2,0.3,2.4,0.5,3.6,0.7c0.3,0,0.6,0.1,0.8,0.1
		c2.5,0.4,5.1,0.6,7.7,0.7c0.3,0,0.7,0,1,0c2.1,0.1,4.1,0,6-0.1c0.7,0,1.4-0.1,2.1-0.1c2.7-0.2,5.3-0.6,7.3-2.6c0.1,0,0.3,0,0.4,0
		c0.8,0.1,1.7,0.1,2.6,0.2c0.6,0,1.2,0.1,1.8,0.1c0.1,0,0.2,0,0.3,0c0.4,0,0.8,0,1.3,0.1c1.2,0.1,2.5,0.1,3.7,0.3
		c0.2,0,0.3,0,0.5,0.1c0.2,0,0.4,0,0.5,0.1c0.3,0,0.6,0.1,0.8,0.1c0,0,0,0,0,0c0.1,0,0.3,0.1,0.4,0.1c0.6,0.1,1.2,0.3,1.8,0.4
		c0.1,0,0.2,0.1,0.4,0.1c0.1,0,0.3,0.1,0.4,0.1c0.6,0.2,1.1,0.5,1.7,0.7c7.4,4.1,13,10.6,16.8,18c0,0,0,0,0,0
		c0.4,0.8,0.8,1.5,1.1,2.3c1.7,3.8,3,7.7,3.8,11.7c0,0.1,0,0.1,0,0.2c0.1,0.3,0.1,0.7,0.2,1c0,0.1,0,0.2,0,0.3
		c0,0.2,0.1,0.4,0.1,0.6C369.2,295.4,369.4,300.1,369.1,304.6z"/>
	<path class="st17" d="M355.1,194.9c-0.1,3.6-0.5,7.2-0.5,10.8c0,2.5-0.8,4.7-1.8,7c-3.2,7.6-5.1,15.5-6.1,23.5
		c-0.4,2.8-1.1,5.6-1.3,8.4c-0.3,3.8-0.3,8.1,0.9,11.7c-0.7-0.1-1-0.5-1.7-0.7c-4.3-1.5-10.3-1.2-14.5-1.6c-0.1,0-0.3,0-0.4,0
		c-2.2-2.5-2.2-5.4-2.1-8.4c0.1-2.5,0.2-5,0.4-7.4c0.2-3,1.1-5.8,3.4-7.9c4.6-4.2,7.4-9.5,9.6-14.9c1.8-4.3,3.9-8.2,7.3-11.6
		c2.4-2.3,3.4-5.5,3.8-8.8c0.4-3.5-0.6-6.4-3.8-8.4c-3-1.9-6.1-1.3-9,0.2c-2.8,1.4-3.2,1.4-5.3-0.8c-7.2-7.5-12.5-15.8-13.4-26.2
		c-0.1-1.3,0-2.5,0-3.7c-0.7-0.2-0.9,0.1-1.1,0.3c-10.9,8.7-22.7,15.7-37.1,17.6c-1.1,0.1-1.3,0.8-1.6,1.6
		c-1.6,5.3-2.6,10.6-2.4,16.1c0.2,3.4-0.1,6.8-0.7,10.2c-0.8,4.3-1,8.6-0.1,12.9c1.6,7.2,5.1,13.3,11.5,17.4
		c2.2,1.4,2.8,2.8,2.8,4.9c0,0.6,0.1,1.1,0,1.7c0,0.3-0.1,0.5-0.1,0.8c-0.2,1.9-0.3,3.8-1.3,5.5c0,0.1-0.1,0.1-0.1,0.2c0,0,0,0,0,0
		c-0.3,0.5-0.7,1-1.3,1.4c-0.2,0.2-0.4,0.3-0.7,0.5c-0.2,0.1-0.4,0.1-0.6,0.2c-3.8,1.1-7.2,3-10.4,5.3c0,0,0,0,0,0
		c-0.3,0.2-0.6,0.5-0.9,0.7h0c-1.1-0.6-2.4-2-3.3-2.8c-9.1-9.8-13.8-20.8-10.7-34.1c1.5-6.2,3.7-12.1,5.4-18.2
		c1.8-6.2,2.6-12.4,2.4-18.7c-0.1-6.2,0.3-12.3,2-18.3c1.3-4.7,3.6-8.9,7.3-12.3c3.7-3.4,7.2-7.2,11.7-9.7
		c10.3-5.7,21.1-6.5,32.5-3.7c5.3,1.3,10.1,3.2,14.6,6.3c7.8,5.3,11.7,12.8,13.8,21.3C355.1,173.4,355.5,184.1,355.1,194.9z"/>
	<path class="st14" d="M207.3,365.3c-1.3,0.3-2.6,0.7-4,1c-2.9,0.7-5.7,1.5-8.6,2.2c-2.3,0.6-4.6,1.2-6.8,1.8
		c2.4-3.4,5.1-6.2,8.5-8.9c0,0,0,0,0,0c0,0.1,0.1,0.2,0.1,0.3c0.2,0.4,0.4,0.8,0.6,1.1c0.8,0.6,1.8,1,3,1.2
		C202.5,364.6,204.9,365,207.3,365.3z"/>
	<path class="st14" d="M352.1,194.9c-0.4,3.3-1.4,6.4-3.8,8.8c-3.5,3.3-5.6,7.2-7.3,11.6c-2.2,5.5-5,10.8-9.6,14.9
		c-2.3,2.1-3.2,4.9-3.4,7.9c-0.2,2.5-0.3,5-0.4,7.4c-0.1,3-0.1,6,2.1,8.4c-2,2-4.6,2.5-7.3,2.6c-0.7,0-1.4,0.1-2.1,0.1
		c-11.5,0.9-29.1-2-31.5-8.2c-0.1-0.3-0.2-0.7-0.3-1c0-0.1,0.1-0.3,0.2-0.4c0.1-0.2,0.3-0.4,0.5-0.6c0.5-0.4,0.9-0.9,1.3-1.4
		c0,0,0,0,0,0c0,0,0.1-0.1,0.1-0.2c1-1.6,1.1-3.6,1.3-5.5c0-0.3,0.1-0.5,0.1-0.8c0.1-0.6,0-1.1,0-1.7c0-2.1-0.6-3.5-2.8-4.9
		c-6.4-4.1-10-10.2-11.5-17.4c-0.9-4.3-0.8-8.7,0.1-12.9c0.7-3.4,0.9-6.8,0.7-10.2c-0.3-5.5,0.8-10.9,2.4-16.1
		c0.2-0.8,0.5-1.4,1.6-1.6c14.4-1.9,26.2-8.9,37.1-17.6c0.2-0.2,0.4-0.5,1.1-0.3c0,1.2-0.1,2.4,0,3.7c0.9,10.4,6.2,18.8,13.4,26.2
		c2.1,2.2,2.5,2.2,5.3,0.8c3-1.4,6-2.1,9-0.2C351.5,188.5,352.5,191.4,352.1,194.9z"/>
	<path class="st18" d="M240.6,515.5c-0.3,3.8-1,7.5-3.1,10.8c-3.3,5.2-8.8,6.6-14.5,3.8c-6.9-3.4-10.2-9.2-12-16.1
		c-2.1-8-1.8-16.1-1.4-24.2c0.3-5.1,0.7-10.3,1.7-15.3c1.3-6.7,3.8-8.7,10.6-9.4c3.7-0.4,7.4-0.6,11-1.4c3.4-0.7,5.1,0.2,6.2,3.4
		c1.2,3.3,1.3,6.7,1.3,10.1c0,5.9,0,11.8,0,17.7C241,501.8,241.1,508.7,240.6,515.5z"/>
</g>
<polygon class="st19" points="298.5,191.9 292.5,202.6 302.2,203.8 "/>
</svg>
